<svg width="32" height="32" viewBox="0 0 32 32" fill="none" xmlns="http://www.w3.org/2000/svg">
<path d="M21.9286 11.4186H9.68367C9.4807 11.4186 9.28604 11.339 9.14252 11.1972C8.999 11.0555 8.91837 10.8632 8.91837 10.6628C8.91837 10.4623 8.999 10.2701 9.14252 10.1283C9.28604 9.98661 9.4807 9.90698 9.68367 9.90698H20.0918C20.2136 9.90698 20.3304 9.8592 20.4165 9.77415C20.5026 9.68911 20.551 9.57376 20.551 9.45349C20.551 9.33322 20.5026 9.21787 20.4165 9.13282C20.3304 9.04778 20.2136 9 20.0918 9H9.68367C9.23714 9 8.80889 9.17519 8.49314 9.48702C8.17739 9.79885 8 10.2218 8 10.6628V20.3372C8 20.7782 8.17739 21.2011 8.49314 21.513C8.80889 21.8248 9.23714 22 9.68367 22H21.9286C22.2127 22 22.4853 21.8885 22.6862 21.6901C22.8871 21.4916 23 21.2225 23 20.9419V12.4767C23 12.1961 22.8871 11.927 22.6862 11.7285C22.4853 11.5301 22.2127 11.4186 21.9286 11.4186ZM22.0816 20.9419C22.0816 20.982 22.0655 21.0204 22.0368 21.0487C22.0081 21.0771 21.9692 21.093 21.9286 21.093H9.68367C9.4807 21.093 9.28604 21.0134 9.14252 20.8717C8.999 20.7299 8.91837 20.5377 8.91837 20.3372V12.1434C9.15515 12.2635 9.41753 12.3259 9.68367 12.3256H21.9286C21.9692 12.3256 22.0081 12.3415 22.0368 12.3699C22.0655 12.3982 22.0816 12.4367 22.0816 12.4767V20.9419ZM19.9388 16.407C19.9388 16.5565 19.8939 16.7026 19.8098 16.8269C19.7257 16.9512 19.6062 17.0481 19.4663 17.1053C19.3265 17.1625 19.1726 17.1774 19.0242 17.1483C18.8757 17.1191 18.7393 17.0471 18.6323 16.9414C18.5253 16.8357 18.4524 16.701 18.4229 16.5544C18.3933 16.4078 18.4085 16.2558 18.4664 16.1177C18.5243 15.9796 18.6224 15.8616 18.7483 15.7785C18.8741 15.6955 19.0221 15.6512 19.1735 15.6512C19.3764 15.6512 19.5711 15.7308 19.7146 15.8725C19.8581 16.0143 19.9388 16.2065 19.9388 16.407Z" fill="white"/>
</svg>
