<svg width="32" height="32" viewBox="0 0 32 32" fill="none" xmlns="http://www.w3.org/2000/svg">
<path d="M22.0392 13.0006H19.2076C19.353 12.9057 19.4907 12.7987 19.6194 12.6807C19.8136 12.5006 19.97 12.2809 20.0788 12.0351C20.1877 11.7893 20.2467 11.5228 20.2522 11.2522C20.2606 10.9545 20.2105 10.6582 20.1051 10.3814C19.9996 10.1046 19.8409 9.85309 19.6388 9.64232C19.4367 9.43155 19.1953 9.26595 18.9296 9.15566C18.6638 9.04537 18.3792 8.99271 18.0931 9.00091C17.8331 9.00658 17.5771 9.06798 17.3409 9.18129C17.1048 9.29459 16.8936 9.45737 16.7206 9.65944C16.4027 10.0499 16.1582 10.4991 16 10.9836C15.8421 10.4995 15.5981 10.0505 15.2808 9.66015C15.1077 9.45778 14.8963 9.29477 14.6599 9.18133C14.4235 9.06789 14.1671 9.00647 13.9069 9.00091C13.6207 8.99232 13.3358 9.04466 13.0698 9.15474C12.8037 9.26481 12.5621 9.43028 12.3596 9.64101C12.1572 9.85174 11.9983 10.1033 11.8926 10.3802C11.787 10.6572 11.7368 10.9536 11.7451 11.2515C11.7505 11.5221 11.8095 11.7886 11.9184 12.0344C12.0273 12.2801 12.1837 12.4999 12.3778 12.68C12.5065 12.7981 12.6442 12.9052 12.7896 12.9999H9.96078C9.83455 12.9999 9.70956 13.0258 9.59295 13.0761C9.47634 13.1264 9.37039 13.2001 9.28116 13.2931C9.19194 13.386 9.12118 13.4963 9.07294 13.6177C9.02469 13.7391 8.99991 13.8692 9 14.0006V16.2862C9 16.5513 9.10123 16.8057 9.28141 16.9932C9.46159 17.1807 9.70597 17.2861 9.96078 17.2861H10.098V22.0001C10.098 22.2653 10.1993 22.5196 10.3794 22.7071C10.5596 22.8946 10.804 23 11.0588 23H20.9412C21.196 23 21.4404 22.8946 21.6206 22.7071C21.8007 22.5196 21.902 22.2653 21.902 22.0001V17.2861H22.0392C22.294 17.2861 22.5384 17.1807 22.7186 16.9932C22.8988 16.8057 23 16.5513 23 16.2862V14.0006C23 13.7354 22.8988 13.481 22.7186 13.2935C22.5384 13.106 22.294 13.0006 22.0392 13.0006ZM16.5332 12.215C16.6876 11.3493 16.9649 10.6615 17.3355 10.2258C17.4347 10.1119 17.5553 10.0205 17.6899 9.9572C17.8245 9.89392 17.9702 9.86015 18.1178 9.858H18.1556C18.3263 9.85802 18.4953 9.89369 18.6526 9.96289C18.8098 10.0321 18.9521 10.1334 19.0711 10.2609C19.1901 10.3884 19.2832 10.5394 19.3451 10.705C19.407 10.8706 19.4363 11.0474 19.4314 11.2251C19.429 11.3789 19.3963 11.5306 19.3351 11.6707C19.274 11.8108 19.1857 11.9363 19.0759 12.0393C18.3402 12.715 17.0925 12.9171 16.4351 12.9757C16.4523 12.7692 16.4804 12.5064 16.5332 12.215ZM12.9426 10.2473C13.1822 9.99887 13.5063 9.85897 13.8444 9.858H13.8822C14.03 9.86042 14.1758 9.89452 14.3104 9.95818C14.445 10.0218 14.5655 10.1137 14.6645 10.228C15.3137 10.9936 15.5079 12.2921 15.5642 12.9764C15.3659 12.9585 15.1133 12.9278 14.8361 12.8742C14.0043 12.715 13.3434 12.425 12.9248 12.0386C12.8148 11.9358 12.7264 11.8105 12.6651 11.6705C12.6038 11.5305 12.571 11.3789 12.5686 11.2251C12.5639 11.0442 12.5946 10.8642 12.6589 10.6961C12.7232 10.528 12.8198 10.3753 12.9426 10.2473ZM9.82353 16.2862V14.0006C9.82353 13.9627 9.83799 13.9264 9.86373 13.8996C9.88947 13.8728 9.92438 13.8577 9.96078 13.8577H15.5882V16.429H9.96078C9.92438 16.429 9.88947 16.4139 9.86373 16.3872C9.83799 16.3604 9.82353 16.324 9.82353 16.2862ZM10.9216 22.0001V17.2861H15.5882V22.1429H11.0588C11.0224 22.1429 10.9875 22.1279 10.9618 22.1011C10.936 22.0743 10.9216 22.038 10.9216 22.0001ZM21.0784 22.0001C21.0784 22.038 21.064 22.0743 21.0382 22.1011C21.0125 22.1279 20.9776 22.1429 20.9412 22.1429H16.4118V17.2861H21.0784V22.0001ZM22.1765 16.2862C22.1765 16.324 22.162 16.3604 22.1363 16.3872C22.1105 16.4139 22.0756 16.429 22.0392 16.429H16.4118V13.8577H22.0392C22.0756 13.8577 22.1105 13.8728 22.1363 13.8996C22.162 13.9264 22.1765 13.9627 22.1765 14.0006V16.2862Z" fill="white"/>
</svg>
