<svg width="28" height="28" viewBox="0 0 28 28" fill="none" xmlns="http://www.w3.org/2000/svg">
<g clip-path="url(#clip0_1291_621)">
<circle cx="14" cy="14" r="14" fill="#00CABF"/>
<g clip-path="url(#clip1_1291_621)">
<path d="M19.2805 12.4266L19.8985 11.8086C20.3901 11.317 20.6663 10.6502 20.6663 9.95498C20.6663 9.25972 20.3901 8.59293 19.8985 8.10131C19.4069 7.60969 18.7401 7.3335 18.0449 7.3335C17.3496 7.3335 16.6828 7.60969 16.1912 8.10131L15.5732 8.71931L9.89185 14.3993C9.50718 14.7846 9.31452 14.9773 9.14918 15.1893C8.95392 15.4395 8.78649 15.7102 8.64985 15.9966C8.53452 16.2393 8.44852 16.498 8.27652 17.014L7.54718 19.2013M19.2805 12.4266C19.2805 12.4266 17.9679 12.3493 16.8092 11.1906C15.6505 10.0326 15.5739 8.71931 15.5739 8.71931M19.2805 12.4266L13.5998 18.1066C13.2152 18.4913 13.0225 18.684 12.8105 18.8493C12.5603 19.0446 12.2896 19.212 12.0032 19.3486C11.7605 19.464 11.5025 19.55 10.9859 19.722L8.79852 20.4513M8.79852 20.4513L8.26385 20.63C8.13922 20.6718 8.0054 20.678 7.87744 20.6479C7.74948 20.6178 7.63245 20.5526 7.5395 20.4597C7.44655 20.3667 7.38137 20.2497 7.35128 20.1217C7.32119 19.9938 7.32739 19.8599 7.36918 19.7353L7.54785 19.2006L8.79852 20.4513Z" stroke="white"/>
</g>
</g>
<defs>
<clipPath id="clip0_1291_621">
<rect width="28" height="28" fill="white" transform="translate(0 28) rotate(-90)"/>
</clipPath>
<clipPath id="clip1_1291_621">
<rect width="16" height="16" fill="white" transform="translate(6 6)"/>
</clipPath>
</defs>
</svg>
