<svg width="32" height="32" viewBox="0 0 32 32" fill="none" xmlns="http://www.w3.org/2000/svg">
<path d="M19.5 24C21.4328 24 23 20.6423 23 16.5C23 12.3578 21.4328 9 19.5 9M16 16.5C16 20.6423 14.4328 24 12.5 24C10.5672 24 9 20.6423 9 16.5C9 12.3578 10.5672 9 12.5 9C14.4328 9 16 12.3578 16 16.5Z" stroke="white"/>
<path d="M13 24C14.6567 24 16 20.6423 16 16.5C16 12.3578 14.6567 9 13 9" stroke="white"/>
<path d="M13.1429 9H20M13.1429 24H20M14.2857 16.5C14.2857 18.9855 13.7737 21 13.1429 21C12.512 21 12 18.9855 12 16.5C12 14.0145 12.512 12 13.1429 12C13.7737 12 14.2857 14.0145 14.2857 16.5Z" stroke="white"/>
<path d="M23.9854 11.6903C23.9932 11.7222 23.9947 11.7553 23.9897 11.7878C23.9848 11.8202 23.9735 11.8514 23.9565 11.8795C23.9395 11.9076 23.9172 11.932 23.8907 11.9515C23.8643 11.9709 23.8343 11.985 23.8025 11.9928L23.0335 12.1803L23.2351 12.9337C23.2436 12.9654 23.2458 12.9985 23.2415 13.031C23.2372 13.0636 23.2265 13.095 23.2101 13.1234C23.1937 13.1519 23.1719 13.1768 23.1459 13.1968C23.1198 13.2168 23.0901 13.2314 23.0584 13.2399C23.0374 13.246 23.0157 13.2493 22.9938 13.2499C22.9389 13.2499 22.8856 13.2317 22.842 13.1982C22.7984 13.1647 22.7671 13.1177 22.7529 13.0646L22.512 12.1646L21.2461 11.4331V12.8965L21.9221 13.573C21.9453 13.5963 21.9637 13.6238 21.9763 13.6542C21.9888 13.6845 21.9953 13.717 21.9953 13.7499C21.9953 13.7827 21.9888 13.8153 21.9763 13.8456C21.9637 13.8759 21.9453 13.9035 21.9221 13.9268C21.8989 13.95 21.8714 13.9684 21.8411 13.981C21.8108 13.9935 21.7783 14 21.7455 14C21.7127 14 21.6802 13.9935 21.6499 13.981C21.6196 13.9684 21.592 13.95 21.5688 13.9268L20.9965 13.3533L20.4241 13.9268C20.4009 13.95 20.3733 13.9684 20.343 13.981C20.3127 13.9935 20.2802 14 20.2474 14C20.2146 14 20.1821 13.9935 20.1518 13.981C20.1215 13.9684 20.094 13.95 20.0708 13.9268C20.0476 13.9035 20.0292 13.8759 20.0166 13.8456C20.0041 13.8153 19.9976 13.7827 19.9976 13.7499C19.9976 13.717 20.0041 13.6845 20.0166 13.6542C20.0292 13.6238 20.0476 13.5963 20.0708 13.573L20.7468 12.8965V11.4331L19.4812 12.1646L19.2403 13.0646C19.2261 13.1178 19.1947 13.1648 19.1511 13.1983C19.1075 13.2318 19.054 13.2499 18.9991 13.2499C18.9772 13.2499 18.9553 13.247 18.9341 13.2415C18.9025 13.233 18.8728 13.2183 18.8467 13.1983C18.8207 13.1784 18.7989 13.1534 18.7824 13.125C18.766 13.0966 18.7554 13.0652 18.7511 13.0326C18.7468 13 18.749 12.9669 18.7575 12.9352L18.9591 12.1818L18.1901 11.9944C18.1258 11.9785 18.0704 11.9378 18.0361 11.881C18.0018 11.8243 17.9914 11.7562 18.0072 11.6919C18.023 11.6275 18.0637 11.572 18.1204 11.5376C18.1771 11.5033 18.245 11.4929 18.3093 11.5087L19.2284 11.7347L20.4971 11L19.2288 10.2669L18.3096 10.4929C18.2902 10.4977 18.2701 10.5001 18.25 10.5C18.189 10.5001 18.13 10.4777 18.0843 10.4372C18.0386 10.3967 18.0094 10.3408 18.002 10.2801C17.9947 10.2194 18.0098 10.1581 18.0445 10.1079C18.0792 10.0576 18.1311 10.0218 18.1904 10.0072L18.9594 9.81975L18.7578 9.06478C18.7407 9.00072 18.7497 8.93246 18.7828 8.87503C18.8159 8.8176 18.8705 8.7757 18.9344 8.75854C18.9984 8.74139 19.0666 8.75038 19.124 8.78355C19.1813 8.81672 19.2232 8.87135 19.2403 8.93541L19.4812 9.83537L20.7468 10.5669V9.10353L20.0708 8.42699C20.0239 8.38009 19.9976 8.31647 19.9976 8.25013C19.9976 8.21728 20.0041 8.18476 20.0166 8.15441C20.0292 8.12406 20.0476 8.09649 20.0708 8.07326C20.094 8.05003 20.1215 8.03161 20.1518 8.01904C20.1821 8.00647 20.2146 8 20.2474 8C20.3137 8 20.3772 8.02635 20.4241 8.07326L20.9965 8.64667L21.5688 8.07326C21.6157 8.02635 21.6792 8 21.7455 8C21.8117 8 21.8753 8.02635 21.9221 8.07326C21.969 8.12017 21.9953 8.18379 21.9953 8.25013C21.9953 8.31647 21.969 8.38009 21.9221 8.42699L21.2461 9.10353V10.5669L22.5116 9.83537L22.7526 8.93541C22.7697 8.87135 22.8116 8.81672 22.8689 8.78355C22.9263 8.75038 22.9945 8.74139 23.0584 8.75854C23.1224 8.7757 23.177 8.8176 23.2101 8.87503C23.2433 8.93246 23.2522 9.00072 23.2351 9.06478L23.0335 9.81818L23.8025 10.0057C23.8634 10.0187 23.9173 10.0541 23.9535 10.1049C23.9897 10.1557 24.0057 10.2182 23.9982 10.2801C23.9907 10.3421 23.9604 10.399 23.9131 10.4397C23.8659 10.4804 23.8052 10.5019 23.7429 10.5C23.7228 10.5001 23.7028 10.4977 23.6832 10.4929L22.7641 10.2669L21.4958 11L22.7641 11.7331L23.6832 11.5072C23.7151 11.4993 23.7482 11.4978 23.7806 11.5028C23.813 11.5078 23.8441 11.5191 23.8722 11.5361C23.9003 11.5531 23.9247 11.5754 23.9441 11.6019C23.9635 11.6284 23.9775 11.6584 23.9854 11.6903Z" fill="white"/>
</svg>
